<svg xmlns="http://www.w3.org/2000/svg" viewBox="0 0 80.84 30.92"><defs><style>.cls-1{isolation:isolate;}.cls-2{fill:#1373e6;}</style></defs><g id="图层_2" data-name="图层 2"><g id="图层_1-2" data-name="图层 1"><g id="Box" class="cls-1"><g class="cls-1"><path class="cls-2" d="M0,0H11.68Q15.84,0,18,2a7.45,7.45,0,0,1,2.16,5.76,7.78,7.78,0,0,1-.82,3.78,6.9,6.9,0,0,1-2.5,2.54,9.42,9.42,0,0,1,2.86,1,6.13,6.13,0,0,1,1.92,1.62,6.06,6.06,0,0,1,1.06,2.16A10,10,0,0,1,23,21.4a9.11,9.11,0,0,1-.74,3.76,7.69,7.69,0,0,1-2.08,2.76,8.77,8.77,0,0,1-3.26,1.68,15.54,15.54,0,0,1-4.32.56H0ZM7.84,11.84H9.28Q13,11.84,13,8.92T9.28,6H7.84Zm0,12.24H9.56a8.71,8.71,0,0,0,4.24-.76,2.63,2.63,0,0,0,1.28-2.44,2.63,2.63,0,0,0-1.28-2.44,8.71,8.71,0,0,0-4.24-.76H7.84Z"/><path class="cls-2" d="M26.2,19.72a10,10,0,0,1,.92-4.26A10.43,10.43,0,0,1,29.68,12a12.16,12.16,0,0,1,3.9-2.3,15,15,0,0,1,9.84,0A12.25,12.25,0,0,1,47.34,12a10.08,10.08,0,0,1,2.58,3.48,10.69,10.69,0,0,1,.92,4.46,10.39,10.39,0,0,1-.94,4.46,10.61,10.61,0,0,1-2.58,3.48,11.55,11.55,0,0,1-3.94,2.26,15.12,15.12,0,0,1-5,.8,14.48,14.48,0,0,1-4.88-.8,11.19,11.19,0,0,1-3.86-2.28,10.6,10.6,0,0,1-2.54-3.54A11.15,11.15,0,0,1,26.2,19.72Zm7.64.08a4.71,4.71,0,0,0,.38,1.9,5.18,5.18,0,0,0,1,1.5,4.35,4.35,0,0,0,1.48,1,4.78,4.78,0,0,0,3.64,0,4.35,4.35,0,0,0,1.48-1,5.18,5.18,0,0,0,1-1.5,4.58,4.58,0,0,0,.38-1.86A4.5,4.5,0,0,0,42.82,18a5.18,5.18,0,0,0-1-1.5,4.35,4.35,0,0,0-1.48-1,4.78,4.78,0,0,0-3.64,0,4.35,4.35,0,0,0-1.48,1,5.22,5.22,0,0,0-1,1.48A4.37,4.37,0,0,0,33.84,19.8Z"/><path class="cls-2" d="M61.4,19l-8.32-9.4h9.44L66,13.88l3.6-4.24h9.44L70.56,19,80.84,30.16h-9.6L66,24.08l-5.28,6.08H51.16Z"/></g></g></g></g></svg>