<svg xmlns="http://www.w3.org/2000/svg" viewBox="0 0 158.28 37.81"><defs><style>.cls-1{isolation:isolate;}.cls-2{fill:#fff;}</style></defs><g id="图层_2" data-name="图层 2"><g id="图层_1-2" data-name="图层 1"><g id="新生手册" class="cls-1"><g class="cls-1"><path class="cls-2" d="M0,32.5q1.41-2.82,3.28-7.66l4.53,1.57q-1.09,3-2.34,5.62H6.88q1.71.16,1.56-1.56V24.38h-7v-5h7V17.5H.78v-5H4.84Q3.75,11.09,2.5,9.38L5.16,8.12H1.56V3.28h6.1A11.05,11.05,0,0,1,7.19.94,1.16,1.16,0,0,1,7,.47L13.59,0a14,14,0,0,1,.63,3.28h5.94V8.12H16.25l3.13,1.1c-.21.31-.58.83-1.1,1.56a18.68,18.68,0,0,1-1.09,1.72h3.59v5H14.22v1.88h6.09v5H14.22V32c.1,3.13-1.46,4.79-4.69,5H8a23.27,23.27,0,0,1-2.35.16c-.1-.42-.26-1.15-.46-2.19a17.19,17.19,0,0,0-.32-1.88,1.52,1.52,0,0,1-.31.63,1.91,1.91,0,0,1-.31.47ZM10.31,11.25,8,12.5h3.44c.93-1.56,1.77-3,2.5-4.38H7.81A32.93,32.93,0,0,0,10.31,11.25ZM36.41,1.09l1.87,5.47c-1.35.21-3.44.47-6.25.78l-4.53.47v4.85H38.44v5.62h-3V36.72H29.84V18.28H27.5a59,59,0,0,1-.78,10.94,35.88,35.88,0,0,1-3,8.44q-2.51-1.72-5.16-3.44A17.43,17.43,0,0,0,20,31.09L17,32.5a51.22,51.22,0,0,0-2.81-5.94l4.37-1.87q1.1,2.19,2.19,4.06a55.69,55.69,0,0,0,.78-11.09v-15A129.37,129.37,0,0,0,36.41,1.09Z"/><path class="cls-2" d="M42,30.47H57.66V24.69H44.84V18.75H57.66V13.44h-7.5q-.79,1.56-2.5,4.68c.1-.2,0-.05-.32.47q-1.25-.78-5.93-3.12A40.49,40.49,0,0,0,47.34,1.72l6.57,1.09q-.63,2.35-1.41,4.53h5.16V.16h6.72V7.34H76.72v6.1H64.38v5.31H75.16v5.94H64.38v5.78h13.9v5.78H42Z"/><path class="cls-2" d="M115.62,11.56v5.78h-12v3.91h14.85v5.94H103.59V30q.16,6.72-6.09,6.88a33.76,33.76,0,0,1-3.91.15c-1.77.1-3.07.16-3.9.16a43.36,43.36,0,0,0-1.41-6.1c1.15.11,2.92.16,5.31.16s3.39-.94,3.29-3.13v-.93H80.78V21.25h16.1V17.34H83.59V11.56H96.88V7.81q-6.25.17-12.82.47-.47-3.58-.94-6.09,18-.31,31.88-1.1L116.25,7q-6.09.16-12.66.47v4.06Z"/><path class="cls-2" d="M123.44,1.56H138V15.31h2.65V1.41h14.85v13.9h2.81v6.1h-2.81V31.56c.1,3.13-1.41,4.79-4.53,5h-1.56c-1.46.11-2.56.16-3.29.16a17.25,17.25,0,0,1-.31-1.88c-.21-1.46-.42-2.65-.62-3.59a31,31,0,0,1-2.66,6.41c-1.67-1.57-3.18-2.92-4.53-4.07q2.66-4.37,2.65-12.18H138v9.06c.1,3.75-1.46,5.67-4.69,5.78a46.41,46.41,0,0,1-4.69.16c-.31-1.88-.62-3.49-.93-4.85a32.75,32.75,0,0,1-2.82,6.25,30.88,30.88,0,0,0-2.18-2.34,23.27,23.27,0,0,1-2.35-2.35,26,26,0,0,0,3.13-11.71h-2.66v-6.1h2.66Zm5.78,19.85a37.93,37.93,0,0,1-1.41,9.68h2.5c1.46.11,2.09-.52,1.88-1.87V21.41Zm0-14.38v8.28h3V7Zm17.19,14.38a39.12,39.12,0,0,1-1.25,9.84,12.21,12.21,0,0,1,1.72.16H148c1.25.1,1.82-.52,1.72-1.88V21.41Zm0-14.53v8.43h3.28V6.88Z"/></g></g></g></g></svg>