<svg xmlns="http://www.w3.org/2000/svg" viewBox="0 0 87.76 31.84"><defs><style>.cls-1{isolation:isolate;}.cls-2{fill:#1373e6;}</style></defs><g id="图层_2" data-name="图层 2"><g id="图层_1-2" data-name="图层 1"><g id="ROP" class="cls-1"><g class="cls-1"><path class="cls-2" d="M25.08,31H15.32L7.84,19.4V31H0V.84H12.2a12,12,0,0,1,4.4.74,8.28,8.28,0,0,1,4.94,5,10.39,10.39,0,0,1,.62,3.6,8.84,8.84,0,0,1-1.66,5.58,8.37,8.37,0,0,1-4.9,2.9ZM7.84,14.32H9.32a5.72,5.72,0,0,0,3.56-1,3.27,3.27,0,0,0,1.24-2.76,3.27,3.27,0,0,0-1.24-2.76,5.72,5.72,0,0,0-3.56-1H7.84Z"/><path class="cls-2" d="M26.44,15.92a15.54,15.54,0,0,1,9.94-14.7,19.17,19.17,0,0,1,13.46,0,15.88,15.88,0,0,1,5.3,3.38,15.58,15.58,0,0,1,4.7,11.32,15.58,15.58,0,0,1-4.7,11.32,15.88,15.88,0,0,1-5.3,3.38,19.17,19.17,0,0,1-13.46,0,15.6,15.6,0,0,1-9.94-14.7Zm8.2,0a8.08,8.08,0,0,0,.68,3.32,8.47,8.47,0,0,0,1.84,2.64,8.14,8.14,0,0,0,2.7,1.74,8.88,8.88,0,0,0,6.52,0,8.44,8.44,0,0,0,2.72-1.74A8.21,8.21,0,0,0,51,19.24a8.44,8.44,0,0,0,0-6.64A8.21,8.21,0,0,0,49.1,10a8.44,8.44,0,0,0-2.72-1.74,8.88,8.88,0,0,0-6.52,0A8.14,8.14,0,0,0,37.16,10a8.47,8.47,0,0,0-1.84,2.64A8.08,8.08,0,0,0,34.64,15.92Z"/><path class="cls-2" d="M72.64,31H64.8V.84H77.28q5.09,0,7.78,2.64t2.7,7.44q0,4.8-2.7,7.44T77.28,21H72.64Zm0-16.32h2.6q4.32,0,4.32-3.76T75.24,7.16h-2.6Z"/></g></g></g></g></svg>