<svg width="47" height="40" viewBox="0 0 47 40" fill="none" xmlns="http://www.w3.org/2000/svg">
<g id="5.0">
<path id="Vector" d="M38.9686 18.1839L38.7011 18.2937C37.7541 18.6822 37.2068 19.5522 37.4787 20.2369L41.8109 31.1483C42.0827 31.833 43.0708 32.073 44.0178 31.6845L44.2853 31.5747C45.2323 31.1861 45.7796 30.3161 45.5077 29.6314L41.1755 18.7201C40.9037 18.0354 39.9156 17.7953 38.9686 18.1839Z" fill="white"/>
<path id="Vector_2" d="M36.2121 18.721C40.5082 18.721 43.9908 15.1807 43.9908 10.8134C43.9908 6.44613 40.5082 2.90576 36.2121 2.90576C31.9161 2.90576 28.4335 6.44613 28.4335 10.8134C28.4335 15.1807 31.9161 18.721 36.2121 18.721Z" stroke="white" stroke-width="4.5" stroke-miterlimit="10"/>
<path id="Vector_3" d="M30.8863 39.6977C32.2409 39.6977 33.3391 38.5996 33.3391 37.2449C33.3391 35.8903 32.2409 34.7921 30.8863 34.7921C29.5316 34.7921 28.4335 35.8903 28.4335 37.2449C28.4335 38.5996 29.5316 39.6977 30.8863 39.6977Z" fill="white"/>
<path id="Vector_4" d="M6.40404 5.26207V16.2728C7.73535 15.7126 9.11119 15.2634 10.5173 14.9298C11.743 14.6493 12.9958 14.5033 14.2534 14.4942C15.6834 14.4624 17.104 14.7304 18.4229 15.2808C19.7417 15.8312 20.9292 16.6515 21.908 17.6885C22.9541 18.8163 23.7648 20.1392 24.2933 21.5805C24.8218 23.0219 25.0575 24.5532 24.9869 26.0857C25.0643 27.794 24.7973 29.5003 24.2017 31.1045C23.6061 32.7087 22.6938 34.1782 21.5186 35.4267C20.4016 36.5924 19.0512 37.5123 17.5546 38.1271C16.058 38.7419 14.4484 39.038 12.8296 38.9961C10.5347 38.9967 8.27021 38.4752 6.20933 37.4715C4.72323 36.7837 3.33919 35.8962 2.09602 34.8338C1.36585 34.1925 1.00076 33.6238 1.00076 33.2487C0.994979 33.0863 1.02217 32.9244 1.08071 32.7726C1.13926 32.6209 1.22796 32.4824 1.34151 32.3655C1.44424 32.2524 1.5702 32.1625 1.71086 32.102C1.85153 32.0414 2.00362 32.0116 2.15687 32.0146C2.55405 32.0473 2.92386 32.229 3.19128 32.5228C5.71029 35.0548 9.12634 36.5054 12.7079 36.5641C14.0188 36.5997 15.3225 36.3606 16.5344 35.8624C17.7462 35.3641 18.8391 34.6179 19.7419 33.6722C21.6558 31.5691 22.6535 28.7977 22.5165 25.9647C22.5687 24.7639 22.3804 23.5647 21.9625 22.4368C21.5447 21.309 20.9057 20.2749 20.0826 19.3946C19.3015 18.5773 18.3559 17.9329 17.3074 17.5034C16.259 17.074 15.1313 16.869 13.9978 16.902C11.3451 16.9347 8.7413 17.6162 6.41621 18.8864C6.01645 19.1249 5.57444 19.2851 5.11407 19.3583C4.95677 19.3647 4.79997 19.3366 4.65483 19.276C4.50969 19.2153 4.37979 19.1236 4.27437 19.0074C4.04015 18.736 3.92219 18.3841 3.94579 18.0273V2.81793C3.94736 2.70883 3.97073 2.60114 4.01455 2.50111C4.05837 2.40108 4.12176 2.31072 4.20104 2.23528C4.28031 2.15984 4.37388 2.10082 4.47631 2.06168C4.57874 2.02253 4.68797 2.00403 4.79766 2.00725H20.9345C21.3682 1.96808 21.8013 2.08864 22.1514 2.34604C22.2731 2.4613 22.3694 2.60036 22.4343 2.75446C22.4993 2.90856 22.5314 3.07436 22.5287 3.24142C22.5324 3.40328 22.5006 3.56399 22.4354 3.71237C22.3703 3.86074 22.2734 3.9932 22.1514 4.1005C21.8029 4.36219 21.3697 4.48711 20.9345 4.45139H7.2194C7.00315 4.45139 6.79576 4.5368 6.64285 4.68883C6.48995 4.84087 6.40404 5.04707 6.40404 5.26207Z" fill="white" stroke="white" stroke-width="1.75" stroke-miterlimit="10"/>
</g>
</svg>
