<svg width="44" height="39" viewBox="0 0 44 39" fill="none" xmlns="http://www.w3.org/2000/svg">
<path d="M37.4 0C33.781 0 30.8 2.93581 30.8 6.5C30.8 7.49636 31.0513 8.43254 31.466 9.28027L23.2891 17.3333H12.7875C11.8693 14.8258 9.44495 13 6.6 13C2.98098 13 0 15.9358 0 19.5C0 23.0642 2.98098 26 6.6 26C9.44495 26 11.8693 24.1742 12.7875 21.6667H23.2891L31.466 29.7197C31.0513 30.5675 30.8 31.5036 30.8 32.5C30.8 36.0642 33.781 39 37.4 39C41.019 39 44 36.0642 44 32.5C44 28.9358 41.019 26 37.4 26C36.3883 26 35.4377 26.2475 34.577 26.6559L27.3109 19.5L34.577 12.3441C35.4377 12.7525 36.3883 13 37.4 13C41.019 13 44 10.0642 44 6.5C44 2.93581 41.019 0 37.4 0ZM37.4 4.33333C38.6411 4.33333 39.6 5.27772 39.6 6.5C39.6 7.72228 38.6411 8.66667 37.4 8.66667C36.1589 8.66667 35.2 7.72228 35.2 6.5C35.2 5.27772 36.1589 4.33333 37.4 4.33333ZM6.6 17.3333C7.84108 17.3333 8.8 18.2777 8.8 19.5C8.8 20.7223 7.84108 21.6667 6.6 21.6667C5.35892 21.6667 4.4 20.7223 4.4 19.5C4.4 18.2777 5.35892 17.3333 6.6 17.3333ZM37.4 30.3333C38.6411 30.3333 39.6 31.2777 39.6 32.5C39.6 33.7223 38.6411 34.6667 37.4 34.6667C36.1589 34.6667 35.2 33.7223 35.2 32.5C35.2 31.2777 36.1589 30.3333 37.4 30.3333Z" fill="white"/>
</svg>
