<svg id="图层_1" data-name="图层 1" xmlns="http://www.w3.org/2000/svg" viewBox="0 0 340.96 107.7"><defs><style>.cls-1{fill:#1373e6;}</style></defs><path class="cls-1" d="M161.2,447.75" transform="translate(-110.16 -355.89)"/><path class="cls-1" d="M190.37,454.08a34.47,34.47,0,0,1-17.84-7.73,42.34,42.34,0,0,1-8.18-9.27c-25.85-39-54.19-14-54.19-14a32.69,32.69,0,0,1,6.41,0,47.59,47.59,0,0,1,12.75,3.18c2.06.81,4.09,1.74,6.07,2.74a108,108,0,0,1,20.1,13.63s10.38,10.12,22.85,15.89a55.7,55.7,0,0,0,23.88,5,37.71,37.71,0,0,0,18.72-4.52c11.84-6.19,18-17.05,19.71-20.66a7.17,7.17,0,0,0,.51-1.21c-.31.35-.63.7-.95,1-8.89,9.29-21.14,11.53-28.22,12a31.31,31.31,0,0,1-10.39-.9A32.5,32.5,0,0,1,177.74,418c0-17.95,12.68-32.45,30.63-32.45,0,0,29.66,1.52,20.45,31.2,0,0,19.79-6,17.11-42.81,0,0-5.58,10.66-14.5,1.42-3.25-3.36-6.94-9.36-11-19.47,0,0-2.81,23.8-39.54,1.8,0,0,2.49,13.6-2,18.61l-4,4.65a44.8,44.8,0,0,0,15.5,73.13" transform="translate(-110.16 -355.89)"/><path class="cls-1" d="M198.64,434.74s16.45-8.82,24.16,2.83c0,0,5.82-10.94,13.85-5.59,0,0-7.4-10.07-13.62.87C223,432.85,211.15,415.85,198.64,434.74Z" transform="translate(-110.16 -355.89)"/><path class="cls-1" d="M279.18,398.21s-8.32,4.36-12.77,5a1.48,1.48,0,0,0-1.28,1.33,6.43,6.43,0,0,0,1.22,3.93c2.13,3.3,25.1-7.32,28.33-10.7s-1.89-7-3.38-5.75S280.75,397.42,279.18,398.21Z" transform="translate(-110.16 -355.89)"/><path class="cls-1" d="M280.42,385.07s1,46.38,0,48.51c-.74,1.56-3.67.92-3.72.94-.24.12,3.55,1.77,3.72,6s7.46,3.14,7.38.71c0,0-.55-50.63,0-51.46s3.75-2.36,3.16-4.72-1.41-8.62-9.2-9S281,381.65,280.42,385.07Z" transform="translate(-110.16 -355.89)"/><path class="cls-1" d="M260.21,424.25l6.18-3.41a.33.33,0,0,1,.51.24c.26,1.81.72,8.3-4.92,12.73-6.61,5.2,6.8,3.36,7.91,2.95S280,432.47,275.45,416a2.7,2.7,0,0,0-.33-.71c-.55-.57-2.18-2-3.81-1-2,1.3-11.92,6.85-12.28,7.67S258.47,425.22,260.21,424.25Z" transform="translate(-110.16 -355.89)"/><path class="cls-1" d="M306.8,411.74s-3.14-9.31-12.2-5.51a.11.11,0,0,0,0,.19c.62.43,2.83,2.17,1.17,3.91a30.51,30.51,0,0,1-8.88,6.84c-4,1.88.52,6.42,2.09,6.72H289c.61-.32,16.69-8.51,17.65-10.91A1.86,1.86,0,0,0,306.8,411.74Z" transform="translate(-110.16 -355.89)"/><path class="cls-1" d="M312.62,437.19a.46.46,0,0,1-.68.38c-4.15-2.42-27.53-15.79-34.47-17a8,8,0,0,1,7.14-2.24C289,419.16,312.88,422.71,312.62,437.19Z" transform="translate(-110.16 -355.89)"/><path class="cls-1" d="M297.47,388.08s2.19.82,2.25,2.12,4.13,8.62,8.91,2.19S295.15,385.57,297.47,388.08Z" transform="translate(-110.16 -355.89)"/><path class="cls-1" d="M341.6,384.91s.4,0,.74.59a2.85,2.85,0,0,1,.09.38V408a2.53,2.53,0,0,0,1.18,2.21c1,.62,2.39.83,4.07-1.13l-.51-11.64.21-12.59s.44-2.4-2.58-2.4S341.91,383.49,341.6,384.91Z" transform="translate(-110.16 -355.89)"/><path class="cls-1" d="M347.32,385.72s5-4.8,8.27-2.63a2,2,0,0,1,.87,1.81,195.39,195.39,0,0,0-.69,23s.34,1.93,1.24,1.8,2.71,0,2.17-2.5-.74-10.81.24-19.63c.92-8.23-.18-9.16-5-8.26l-.34.07a1.85,1.85,0,0,0-.31.09l-1.08.35-.15.06-.26.11a33.34,33.34,0,0,1-7.92,2.48C341,382.84,347.32,385.72,347.32,385.72Z" transform="translate(-110.16 -355.89)"/><path class="cls-1" d="M347.26,392s7.15-2.78,10.08,0c0,0-3-.18-6.78,3.12C348.18,397.17,343.17,394.7,347.26,392Z" transform="translate(-110.16 -355.89)"/><path class="cls-1" d="M355.76,403.2s-15.78,16-18.9,17.55c-1.15.58-9.11,3.07,4.13-8.07,3.33-2.8,10.36-8.75,14.77-9.48.53-.09-1.55,1.23-1.19,1.22" transform="translate(-110.16 -355.89)"/><path class="cls-1" d="M344.41,415.4s14.67-3.67,17.6-4.77,4.46-4.6-2.29-2.56-3.13,1.87-14.46,5.74S344.41,415.4,344.41,415.4Z" transform="translate(-110.16 -355.89)"/><path class="cls-1" d="M355.35,412.09c.56,1.53-8.16,11-9.08,12.71-3.35,6.28-8.77,3.56,3.54-10.68C354.13,409.12,354.58,410,355.35,412.09Z" transform="translate(-110.16 -355.89)"/><path class="cls-1" d="M347.47,421.68s5.88-1.53,7.43.74,3.31-1.35,1.72-1.3-6.93-4.24-8.82-1.46S347.47,421.68,347.47,421.68Z" transform="translate(-110.16 -355.89)"/><path class="cls-1" d="M356.14,418.16c-1.18,2.78-7,14-24.94,15.91-18.41,2,5,1.66,12.3.44l.19,0,.73-.15.3-.09a11.17,11.17,0,0,0,1.09-.44c3.89-2,15.56-9.61,17.8-14.78a.79.79,0,0,0-.22-.91c-1-.94-3.87-3.11-6.2-1.37A5.35,5.35,0,0,0,356.14,418.16Z" transform="translate(-110.16 -355.89)"/><path class="cls-1" d="M322.32,433.77c12.35,1.18,51.31,4.57,67.55,2.24a.47.47,0,0,1,.33.85c-5,3.56-23.83,13.29-68.06-2.16A.48.48,0,0,1,322.32,433.77Z" transform="translate(-110.16 -355.89)"/><path class="cls-1" d="M345.63,404.07s2.58.11,10-3c0,0,.93-1,.61,2.27s-3.78,3.49-7.33,4.42-4.86-.62-4.08-2.14Z" transform="translate(-110.16 -355.89)"/><path class="cls-1" d="M344.05,412.3s-.13,1.93,4.81.23l-.56,1.88s-4.65,1-6.52,1.49S344.05,412.3,344.05,412.3Z" transform="translate(-110.16 -355.89)"/><path class="cls-1" d="M349.81,409.12a16.34,16.34,0,0,1,4.2-2.81c2.36-1-.7-1.77-.7-1.77Z" transform="translate(-110.16 -355.89)"/><path class="cls-1" d="M353.43,406.5s3.22-1.16,2.91.82.85-4.12.85-4.12Z" transform="translate(-110.16 -355.89)"/><path class="cls-1" d="M356.25,412.33" transform="translate(-110.16 -355.89)"/><path class="cls-1" d="M358.19,411.79a21.14,21.14,0,0,0-5.32,4.56c-1.41,1.82,2-3.8,2-3.8Z" transform="translate(-110.16 -355.89)"/><path class="cls-1" d="M352.26,417.25a1.36,1.36,0,0,0,.46,2.25c1.69.88-2-.47-2-.47Z" transform="translate(-110.16 -355.89)"/><path class="cls-1" d="M348.27,422.16a3.65,3.65,0,0,1,2.47-1.31c1.83-.32-.55-.81-.55-.81l-1.33.52Z" transform="translate(-110.16 -355.89)"/><path class="cls-1" d="M393.87,384.66c-1.38-.06-9.67-.3-8.57,2.9,1.59,4.62,5.46,3.09,6.95,4.58,1.12,1.11-.12,4.18-.83,5.69-.24.51-.19.55.17.05A29.29,29.29,0,0,0,394,394a5.34,5.34,0,0,1,1.37-1.69c1.78-1.53,5.67-6.18-1.14-7.62A1.66,1.66,0,0,0,393.87,384.66Z" transform="translate(-110.16 -355.89)"/><path class="cls-1" d="M389.69,402.65c-.41.29-5.89,4.23-1,7.07a.07.07,0,0,1,0,.06c.07.34.53,3-1,11.14-1.64,8.7-1,15.62,3.85,18.25a.1.1,0,0,0,.14,0c.33-.62,2.13-4.7,1.54-19.87,0,0,0-5.53-.17-8.25s-.42-8.51-3.33-8.38Z" transform="translate(-110.16 -355.89)"/><path class="cls-1" d="M392.58,434.24a5.21,5.21,0,0,0,1.79-.6c1-.52-3.43,2.78-3,5.49" transform="translate(-110.16 -355.89)"/><path class="cls-1" d="M420.49,389.8a.29.29,0,0,0-.07-.57,34.53,34.53,0,0,0-13.85,1.94h0c-.15.11-3.36,2.48-2.67,4.24s2.6,2.29,4.17,2.21S416.39,391.44,420.49,389.8Z" transform="translate(-110.16 -355.89)"/><path class="cls-1" d="M406.87,384.82s4.95-2.82-2.78,21.86a.11.11,0,0,0,.15.13c1.4-.89,8.83-6.24,11.6-21.65.17-.91-2.57-2.4-3.44-2.7-1.78-.61-4.77-1.16-6.8,1C402.57,386.79,406.87,384.82,406.87,384.82Z" transform="translate(-110.16 -355.89)"/><path class="cls-1" d="M400.86,403.85s3.38-1.9,4.25-.33,1.91,9.09,2.78,10-1.45,4.18-1.94,4.9a.1.1,0,0,1-.17,0C405,417,398.57,404.51,400.86,403.85Z" transform="translate(-110.16 -355.89)"/><path class="cls-1" d="M408.45,402.63s8.88-1.52,12.66.45a.1.1,0,0,0,.14-.12,5.5,5.5,0,0,1,.05-3.48c.12-.29-.2-.49-.8-.62C417.26,398.15,405.16,400.74,408.45,402.63Z" transform="translate(-110.16 -355.89)"/><path class="cls-1" d="M424.36,401.1a2.27,2.27,0,0,0-1.88-2.19c-2-.35-5.07-.72-4.78.34a24.6,24.6,0,0,1-1.07,13.49c-2.67,7.47,2.05,4.34,5.35-2.27A20.43,20.43,0,0,0,424.36,401.1Z" transform="translate(-110.16 -355.89)"/><path class="cls-1" d="M405.53,409.18a.08.08,0,0,1,.07-.07c.68-.18,7.5-1.93,12.88-.94,6.11,1.13-6.81.94-10.59,4.53C404.3,416.11,405.4,409.85,405.53,409.18Z" transform="translate(-110.16 -355.89)"/><path class="cls-1" d="M417,414.28s-10.12,1.44-11.6.48-.73,6.42,4.71,4.85,7.87-2.9,8.27-3.88S417,414.28,417,414.28Z" transform="translate(-110.16 -355.89)"/><path class="cls-1" d="M412.76,418s0,0,0,.05c0,.51.4,10.16-1.19,14,0,0-.56.5-1.45-.12s1.47,3,1.15,3.61,2.93,1.93,3.35.78,2.12-15.22,1.23-18.8C415,414.14,412.93,417.71,412.76,418Z" transform="translate(-110.16 -355.89)"/><path class="cls-1" d="M424.07,389.92l.43.28a7,7,0,0,1,1.88,3.59c.66,2.66,3.6,29.61-3.78,38a1.82,1.82,0,0,0,.68,2.9c1.88.76,4.41,1.32,6.26,0,3.27-2.35,4.64-25.31,2.24-40.95a1.88,1.88,0,0,0-.46-.95c-1.1-1.22-4.46-4.6-7.62-4.13C423.7,388.66,422.62,389.2,424.07,389.92Z" transform="translate(-110.16 -355.89)"/><path class="cls-1" d="M433.26,387a.1.1,0,0,0,.07.19c2.21-.62,9.31-2.43,10-.44.78,2.34-1.07,31.52.51,42.75a.1.1,0,0,1-.17.09,40.64,40.64,0,0,1-5.29-6.19c0-.05,0-.08,0,.05-.38,1.53,2.78,8.5,4.22,11.1.25.45.46.38.52,1,0,.47,0,1,.77,1.16,1.35.27,3.91,1,5.88-.58a1.58,1.58,0,0,0,.55-1.41c-.57-5-3.51-32.66.06-45.4,0,0,.25-1.56.74-1.71S449.33,376.64,433.26,387Z" transform="translate(-110.16 -355.89)"/><path class="cls-1" d="M429.59,400.71s10.62-.61,13.58,1.3,4.24-4.5,3.49-5-16.77.31-17,1.4-1.89.95-1.31,1.62A1.82,1.82,0,0,0,429.59,400.71Z" transform="translate(-110.16 -355.89)"/><path class="cls-1" d="M430.08,409.11a.09.09,0,0,1,.07,0c.85-.07,12.47-2.43,13.51,1.62s1.2,3.29-1.21,2.9-12.29-1.57-12.77-2.48S429.94,409.31,430.08,409.11Z" transform="translate(-110.16 -355.89)"/><path class="cls-1" d="M422.94,421a.47.47,0,0,0-.14-.92c-3.64-.12-10.51.93-19.44,3.63h0c-.05,0-5.72,2.05-4.68,4.37a3.67,3.67,0,0,0,2.73,2.09,10.46,10.46,0,0,0,4.13-1.19A111.54,111.54,0,0,1,422.94,421Z" transform="translate(-110.16 -355.89)"/></svg>