<svg width="25" height="20" viewBox="0 0 25 20" fill="none" xmlns="http://www.w3.org/2000/svg">
<path d="M25.0006 12.499V17.4997C25.0006 18.1628 24.7372 18.7988 24.2683 19.2677C23.7994 19.7366 23.1634 20 22.5003 20C21.8372 20 21.2012 19.7366 20.7323 19.2677C20.2634 18.7988 20 18.1628 20 17.4997V12.499C19.9877 11.8441 19.7189 11.2202 19.2514 10.7614C18.7839 10.3027 18.1551 10.0456 17.5001 10.0456C16.8451 10.0456 16.2162 10.3027 15.7488 10.7614C15.2813 11.2202 15.0125 11.8441 15.0002 12.499V17.4997C14.9879 18.1546 14.7191 18.7785 14.2516 19.2372C13.7841 19.696 13.1553 19.953 12.5003 19.953C11.8453 19.953 11.2165 19.696 10.749 19.2372C10.2815 18.7785 10.0127 18.1546 10.0004 17.4997V12.499C10.0004 11.5141 10.1944 10.5388 10.5713 9.62885C10.9482 8.71889 11.5007 7.89208 12.1971 7.19563C12.8936 6.49918 13.7204 5.94673 14.6303 5.56981C15.5403 5.1929 16.5156 4.9989 17.5005 4.9989C18.4854 4.9989 19.4607 5.1929 20.3707 5.56981C21.2806 5.94673 22.1074 6.49918 22.8039 7.19563C23.5003 7.89208 24.0528 8.71889 24.4297 9.62885C24.8066 10.5388 25.0006 11.5141 25.0006 12.499Z" fill="url(#paint0_linear_1865_5104)"/>
<path d="M2.50033 5.00066C3.88123 5.00066 5.00066 3.88122 5.00066 2.50033C5.00066 1.11944 3.88123 0 2.50033 0C1.11944 0 0 1.11944 0 2.50033C0 3.88122 1.11944 5.00066 2.50033 5.00066Z" fill="#48BDC8"/>
<path d="M12.5008 6.90921C11.7137 7.61216 11.084 8.47354 10.6531 9.43686C10.2222 10.4002 9.99982 11.4437 10.0004 12.499C9.98814 11.8441 9.71935 11.2202 9.25187 10.7614C8.78439 10.3027 8.15555 10.0456 7.50055 10.0456C6.84555 10.0456 6.21671 10.3027 5.74923 10.7614C5.28175 11.2202 5.01296 11.8441 5.00066 12.499V17.4997C5.00066 18.1628 4.73724 18.7988 4.26833 19.2677C3.79943 19.7366 3.16346 20 2.50033 20C1.8372 20 1.20124 19.7366 0.732333 19.2677C0.26343 18.7988 4.2463e-06 18.1628 4.2463e-06 17.4997V12.499C-0.00153724 11.0504 0.416641 9.63244 1.20397 8.41651C1.9913 7.20057 3.11405 6.23879 4.43644 5.64748C5.75883 5.05616 7.22422 4.86064 8.65538 5.08455C10.0865 5.30847 11.4222 5.94224 12.5008 6.90921Z" fill="url(#paint1_linear_1865_5104)"/>
<defs>
<linearGradient id="paint0_linear_1865_5104" x1="23.646" y1="20.1967" x2="12.6269" y2="9.03911" gradientUnits="userSpaceOnUse">
<stop stop-color="#3DBCD5"/>
<stop offset="1" stop-color="#51BDB8"/>
</linearGradient>
<linearGradient id="paint1_linear_1865_5104" x1="2.10522" y1="9.69705" x2="12.6419" y2="17.6152" gradientUnits="userSpaceOnUse">
<stop stop-color="#62A5D4"/>
<stop offset="1" stop-color="#386FA3"/>
</linearGradient>
</defs>
</svg>
