<svg width="48" height="48" viewBox="0 0 48 48" fill="none" xmlns="http://www.w3.org/2000/svg">
<path d="M20 4H28" stroke="white" stroke-width="4" stroke-linecap="round" stroke-linejoin="round"/>
<path d="M9.16395 22C7.98355 24.9132 7.6874 28.1096 8.31247 31.1901C8.93754 34.2707 10.4561 37.0988 12.6787 39.3216C14.9012 41.5443 17.7292 43.0632 20.8097 43.6886C23.8902 44.3139 27.0866 44.0181 29.9999 42.838M14.8599 14.866C17.9411 12.721 21.6784 11.7279 25.4179 12.0603C29.1574 12.3927 32.661 14.0295 35.3155 16.6843C37.97 19.339 39.6065 22.8427 39.9386 26.5822C40.2706 30.3218 39.2771 34.059 37.1319 37.14L14.8599 14.866Z" stroke="white" stroke-width="4" stroke-linecap="round" stroke-linejoin="round"/>
<path d="M4 4L44 44" stroke="white" stroke-width="4" stroke-linecap="round" stroke-linejoin="round"/>
<path d="M24 24V20" stroke="white" stroke-width="4" stroke-linecap="round" stroke-linejoin="round"/>
</svg>
