<?xml version="1.0" encoding="utf-8"?>
<!-- Generator: Adobe Illustrator 26.0.2, SVG Export Plug-In . SVG Version: 6.00 Build 0)  -->
<svg version="1.1" id="enroll_logo" xmlns="http://www.w3.org/2000/svg" xmlns:xlink="http://www.w3.org/1999/xlink" x="0px"
	 y="0px" viewBox="0 0 1190.55 841.89" style="enable-background:new 0 0 1190.55 841.89;" xml:space="preserve">
<style type="text/css">
	.st0{fill:url(#part2_00000141432623070846045410000007235290431595862418_);}
	.st1{fill:url(#part1_00000004545842889269896470000016656128424627977637_);}
</style>
<linearGradient id="part2_00000140697904397442954560000009315407498168271039_" gradientUnits="userSpaceOnUse" x1="636.1438" y1="173.5554" x2="291.6393" y2="462.7079">
	<stop  offset="0.0607" style="stop-color:#FF6451"/>
	<stop  offset="1" style="stop-color:#E64A7E"/>
</linearGradient>
<path id="part2" style="fill:url(#part2_00000140697904397442954560000009315407498168271039_);" d="M902.03,96.09
	c-0.59,15.54-0.13,38.7-6.74,74.97c-6.61,36.27-13.63,7.5-232.59,24.31S368.79,370.66,435.64,491.16c1.54,2.79,3.16,5.54,4.85,8.25
	c-16.06,0.73-86.42-0.65-91.68-80.4c-0.36-5.51-0.97-10.68-1.8-15.54c-10.84-63.98-58.89-73.43-72.35-74.82
	c38.99-150.5,162.76-258.27,472.31-253.46c76.18,0,113.66,1.62,128.09,1.22C889.49,76,902.61,80.56,902.03,96.09z"/>
<linearGradient id="part1_00000135653222711636443830000004898366315844172719_" gradientUnits="userSpaceOnUse" x1="733.4772" y1="698.9136" x2="329.365" y2="471.6508">
	<stop  offset="0.2926" style="stop-color:#3CA4FF"/>
	<stop  offset="0.4078" style="stop-color:#42A0FA"/>
	<stop  offset="0.5671" style="stop-color:#5494EE"/>
	<stop  offset="0.7521" style="stop-color:#7182D8"/>
	<stop  offset="0.955" style="stop-color:#9A67BB"/>
	<stop  offset="1" style="stop-color:#A461B4"/>
</linearGradient>
<path id="part1" style="fill:url(#part1_00000135653222711636443830000004898366315844172719_);" d="M850.19,623.92
	c-0.19,36.37-0.16,22.95-0.61,58.69c-0.46,35.73-7.82,37.48-240.68,37.48c-360.67,0-348.4-294.2-348.4-294.2
	c1.7-32.86,5.93-64.6,13.5-94.66c0.22-0.86,0.44-1.73,0.66-2.58c13.46,1.39,61.51,10.84,72.35,74.82c0.83,4.86,1.44,10.03,1.8,15.54
	c5.26,79.75,75.62,81.13,91.68,80.4c36.41,58.26,107.72,99.6,213.72,93C847.15,588.63,850.39,587.55,850.19,623.92z"/>
</svg>
