<?xml version="1.0" encoding="utf-8"?>
<svg width="896px" height="896px" viewBox="0 0 896 896" version="1.1" xmlns:xlink="http://www.w3.org/1999/xlink" xmlns="http://www.w3.org/2000/svg">
  <desc>Created with Lunacy</desc>
  <defs>
    <radialGradient gradientUnits="objectBoundingBox" cx="9.508857%" cy="-7.779972%" fx="9.508857%" fy="-7.779972%" r="141.4212%" gradientTransform="translate(0.09508856,-0.07779972),rotate(45.00002),scale(1,0),translate(-0.09508856,0.07779972)" id="gradient_1">
      <stop offset="0%" stop-color="#BEBEBE" />
      <stop offset="96.45161%" stop-color="#2D2929" />
      <stop offset="100%" stop-color="#515151" />
    </radialGradient>
  </defs>
  <g id="macos">
    <path d="M0 447.8C0 197.9 197.9 0 447.8 0C697.7 0 895.6 197.9 895.6 447.8C895.6 697.7 697.7 895.6 447.8 895.6C197.9 895.6 0 697.7 0 447.8ZM463.3 333.6C466.4 333.6 469.6 333.2 472.6 332.4C475.7 331.6 478.5 330.5 480.9 329C483.4 327.5 485.7 325.8 487.8 323.7C489.9 321.7 491.6 319.3 492.9 316.8L493.4 316.8L493.4 332.5L511.4 332.5L511.4 267.7C511.4 263.1 510.5 258.8 508.7 255C506.9 251.2 504.4 248 501.1 245.3C497.8 242.6 493.8 240.6 489.1 239.1C484.4 237.6 479.2 236.9 473.5 236.9C468.2 236.9 463.2 237.7 458.7 239.1C454.2 240.6 450.2 242.6 446.9 245.2C443.6 247.8 441 250.8 439 254.4C437 258 436 261.8 435.9 266L453.6 266C454 264 454.8 262.1 455.9 260.5C457 258.8 458.4 257.4 460.1 256.2C461.8 255.1 463.7 254.1 465.9 253.5C468.1 252.9 470.5 252.6 473 252.6C479.4 252.6 484.2 254.1 487.7 256.9C491.2 259.7 492.9 263.9 492.9 269.3L492.9 276.6L467.4 278.1C455.7 278.8 446.8 281.5 440.6 286.2C434.4 290.8 431.3 297.3 431.3 305.6C431.3 309.8 432.1 313.6 433.7 317.1C435.3 320.5 437.5 323.5 440.3 325.9C443.1 328.4 446.5 330.3 450.4 331.6C454.3 332.9 458.6 333.6 463.3 333.6ZM534.7 265.4C536.8 259.5 539.8 254.4 543.7 250.1C547.6 245.9 552.2 242.6 557.6 240.3C563 238 569.1 236.9 575.8 236.9C581.8 236.9 587.3 237.8 592.1 239.6C597 241.4 601.1 243.8 604.6 246.9C608.1 249.9 610.8 253.5 612.9 257.5C614.9 261.6 616.1 265.9 616.5 270.4L598.5 270.4C598 267.9 597.2 265.6 596.1 263.5C594.9 261.4 593.4 259.5 591.5 257.9C589.6 256.3 587.3 255.1 584.8 254.2C582.2 253.3 579.3 252.9 576.1 252.9C572.3 252.9 568.8 253.7 565.7 255.2C562.6 256.7 559.9 258.9 557.7 261.7C555.5 264.5 553.8 267.9 552.6 272C551.4 276 550.8 280.5 550.8 285.4C550.8 290.5 551.4 295.1 552.6 299.1C553.8 303.1 555.5 306.5 557.8 309.3C560 312.1 562.7 314.2 565.9 315.7C569 317.2 572.5 317.9 576.2 317.9C582.4 317.9 587.4 316.5 591.2 313.6C595.1 310.7 597.6 306.5 598.8 300.9L616.8 300.9C616.3 305.8 614.9 310.3 612.7 314.4C610.5 318.5 607.6 321.9 604.2 324.8C600.7 327.7 596.6 329.9 591.8 331.4C587.1 333 581.8 333.8 576.2 333.8C569.5 333.8 563.4 332.7 557.9 330.5C552.5 328.3 547.8 325.1 543.9 320.9C540 316.7 537 311.7 534.9 305.7C532.8 299.7 531.7 293 531.7 285.5C531.6 278 532.6 271.4 534.7 265.4ZM296.9 238.2L278.9 238.2L278.9 332.6L296.7 332.6L296.7 274.7C296.7 271.6 298.3 268.8 299.2 266.2C300.1 263.6 301.5 261.3 303.3 259.4C305 257.5 307.1 256 309.6 254.9C312.1 253.8 314.8 253.3 317.7 253.3C320.5 253.3 323 253.8 325.2 254.6C327.4 255.4 329.3 256.6 330.9 258.2C332.5 259.8 333.7 261.7 334.5 263.9C335.4 266.1 335.8 268.6 335.8 271.3L335.8 332.7L354.2 332.7L354.2 274.1Q354.2 269.45 355.7 265.7C356.7 263.1 358.1 260.9 359.8 259.1C361.5 257.2 363.6 255.8 366 254.8C368.5 253.8 371.1 253.3 374 253.3C379.9 253.3 384.4 255 387.6 258.4C390.8 261.8 392.4 266.6 392.4 272.8L392.4 332.5L411.2 332.5L411.2 268.2C411.2 263.5 410.4 259.2 409 255.4C407.6 251.6 405.5 248.3 402.8 245.6C400.1 242.9 396.9 240.8 393.1 239.3C389.3 237.8 385.1 237.1 380.5 237.1C377.1 237.1 373.9 237.6 370.9 238.4C367.9 239.2 365 240.4 362.5 242C359.9 243.6 357.7 245.6 355.7 247.8C353.7 250 352.1 252.6 350.9 255.4L350.4 255.4C348.5 249.5 345.3 245 340.7 241.8C336.2 238.7 330.6 237.1 324 237.1C320.9 237.1 318 237.5 315.2 238.3C312.5 239.1 309.9 240.2 307.6 241.7C305.3 243.2 303.3 245 301.5 247.1C299.7 249.1 298.3 251.5 297.2 254.2L296.9 254.2L296.9 238.2ZM492.9 289.7L492.9 297.1C492.9 300.2 492.3 303.1 491 305.8C489.7 308.4 488 310.6 485.8 312.5C483.6 314.4 481 315.8 478 316.9C475 318 471.8 318.5 468.3 318.5C462.9 318.5 458.5 317.3 455.3 314.9C452 312.5 450.4 309.3 450.4 305.2C450.4 301 452 297.8 455.3 295.4C458.6 293.1 463.5 291.7 470 291.3L492.9 289.7ZM591.4 690.1C528.4 690.1 485.6 657.1 482.7 605.3L523.7 605.3C526.9 634.9 555.5 654.5 594.7 654.5C632.3 654.5 659.3 634.9 659.3 608.1C659.3 584.9 642.9 570.9 604.9 561.3L567.9 552.1C514.7 538.9 490.5 514.7 490.5 474.9C490.5 425.9 533.3 391.9 594.2 391.9C653.8 391.9 695.3 426.1 696.9 475.3L656.3 475.3C653.5 445.7 629.3 427.5 593.3 427.5C557.5 427.5 532.7 445.9 532.7 472.5C532.7 493.5 548.3 505.9 586.3 515.5L617.5 523.3C676.9 537.7 701.3 561.1 701.3 603.1C701.3 656.7 659 690.1 591.4 690.1ZM319.8 690.1C237.2 690.1 185.5 632.7 185.5 541.2C185.5 449.7 237.2 392.1 319.8 392.1C402.4 392.1 453.9 449.7 453.9 541.2C453.9 632.7 402.3 690.1 319.8 690.1ZM227.9 541.1C227.9 472.2 263.2 428.8 319.8 428.8C376.1 428.8 411.7 472.2 411.7 541.1C411.7 609.8 376.2 653.2 319.8 653.2C263.3 653.2 227.9 609.9 227.9 541.1Z" id="Shape" fill="url(#gradient_1)" fill-rule="evenodd" stroke="none" />
  </g>
</svg>