<svg width="48" height="48" viewBox="0 0 48 48" fill="none" xmlns="http://www.w3.org/2000/svg">
<path d="M38 44H10C7.8 44 6 42.2 6 40V12C6 9.8 7.8 8 10 8H38C40.2 8 42 9.8 42 12V40C42 42.2 40.2 44 38 44Z" stroke="white" stroke-width="4" stroke-linecap="round" stroke-linejoin="round"/>
<path d="M32 4V8" stroke="white" stroke-width="4" stroke-linecap="round" stroke-linejoin="round"/>
<path d="M16 4V8" stroke="white" stroke-width="4" stroke-linecap="round" stroke-linejoin="round"/>
<path d="M24 28C27.3137 28 30 25.3137 30 22C30 18.6863 27.3137 16 24 16C20.6863 16 18 18.6863 18 22C18 25.3137 20.6863 28 24 28Z" stroke="white" stroke-width="4" stroke-linecap="round" stroke-linejoin="round"/>
<path d="M34 37C31.2 35 27.8 34 24 34C20.2 34 16.8 35.2 14 37" stroke="white" stroke-width="4" stroke-linecap="round" stroke-linejoin="round"/>
</svg>
